<svg version="1.0" xmlns="http://www.w3.org/2000/svg" width="933.333" height="933.333" viewBox="0 0 700 700"><path d="M117 1.5c-40.1 6.8-74.8 30.1-96.8 65-7 11.3-13.9 28.4-17.9 44.8C.7 118 .5 132.8.2 345 0 505.7.2 573.8 1 579.5c8.3 60.7 55.9 109.2 116.9 119.1 12.8 2.1 451.4 2.1 464.2 0 60.1-9.8 106.7-56.4 116.5-116.5 2.1-12.8 2.1-451.4 0-464.2-7.5-45.9-37-85.3-78.6-104.8-9.7-4.5-20.1-8.1-31-10.7-7.1-1.7-19.9-1.9-236-2C171.5.2 123 .5 117 1.5zM220.5 142c30.7 37.4 56.1 68 56.6 68s.9-29 .9-68V74h50v225h-41.9l-56.3-68.5-56.3-68.6-.3 68.6-.2 68.5h-51V74h42.8l55.7 68zm334.6 44c27.4 61.3 49.9 111.8 49.9 112.2 0 .5-12 .8-26.7.8h-26.8l-9.9-24-9.9-24-53 .2-53.1.3-9.7 23.5-9.7 23.5-26.5.3-26.5.2 34.4-77.2c19-42.5 41.5-93.2 50.2-112.6L453.4 74l25.9.2 25.9.3L555.1 186zM179.5 467c23.1 38.5 42.2 70 42.5 70 .3-.1 19.1-31.6 41.9-70l41.4-70H348v225h-48v-67.7c0-57.5-.2-67.5-1.4-66.3-.7.8-15.9 25.9-33.6 55.7L232.8 598h-23.4l-32.9-54.2-33-54.2-.3 66.2-.2 66.2H94V397h21.8l21.7.1 42 69.9zm273.7 2.2.3 72.3 2.6 7.7c7.7 22.5 22.8 32.8 47.8 32.8 20.5-.1 35.9-8.7 43.1-24.3 6.6-14.1 6.4-11.1 6.8-89.5l.3-71.2h51l-.4 73.2c-.3 69.8-.4 73.7-2.4 82.3-8.9 38.7-32.8 62.5-71.3 70.8-11.7 2.5-40.1 3-52 .8-41.6-7.5-66.5-31.6-75.7-73.1-1.4-6.5-1.7-17.2-2-80.8l-.4-73.2h52l.3 72.2z"/><path d="M460.7 167.7c-9.8 23.6-17.7 43.1-17.7 43.5 0 1 72 1.1 72 .1 0-1.4-35.5-86.3-36.1-86.3-.3 0-8.5 19.2-18.2 42.7z"/></svg>