<?xml version="1.0" standalone="no"?>
<!DOCTYPE svg PUBLIC "-//W3C//DTD SVG 20010904//EN"
 "http://www.w3.org/TR/2001/REC-SVG-20010904/DTD/svg10.dtd">
<svg version="1.0" xmlns="http://www.w3.org/2000/svg"
 width="700.000000pt" height="700.000000pt" viewBox="0 0 700.000000 700.000000"
 preserveAspectRatio="xMidYMid meet">
<metadata>
Created by potrace 1.14, written by Peter Selinger 2001-2017
</metadata>
<g transform="translate(0.000000,700.000000) scale(0.100000,-0.100000)"
fill="#000000" stroke="none">
<path d="M1170 6985 c-401 -68 -748 -301 -968 -650 -70 -113 -139 -284 -179
-448 -16 -67 -18 -215 -21 -2337 -2 -1607 0 -2288 8 -2345 83 -607 559 -1092
1169 -1191 128 -21 4514 -21 4642 0 601 98 1067 564 1165 1165 21 128 21 4514
0 4642 -75 459 -370 853 -786 1048 -97 45 -201 81 -310 107 -71 17 -199 19
-2360 20 -1815 2 -2300 -1 -2360 -11z m1035 -1405 c307 -374 561 -680 566
-680 5 0 9 290 9 680 l0 680 250 0 250 0 0 -1125 0 -1125 -210 0 -209 0 -563
685 -563 686 -3 -686 -2 -685 -255 0 -255 0 0 1125 0 1125 214 0 214 0 557
-680z m3346 -440 c274 -613 499 -1118 499 -1122 0 -5 -120 -8 -267 -8 l-268 0
-99 240 -99 240 -530 -2 -531 -3 -97 -235 -97 -235 -265 -3 -265 -2 344 772
c190 425 415 932 502 1126 l156 352 259 -2 259 -3 499 -1115z m-3756 -2810
c231 -385 422 -700 425 -700 3 1 191 316 419 700 l414 700 213 0 214 0 0
-1125 0 -1125 -240 0 -240 0 0 677 c0 575 -2 675 -14 663 -7 -8 -159 -259
-336 -557 l-322 -543 -117 0 -117 0 -329 542 -330 542 -3 -662 -2 -662 -245 0
-245 0 0 1125 0 1125 218 0 217 -1 420 -699z m2737 -22 l3 -723 26 -77 c77
-225 228 -328 478 -328 205 1 359 87 431 243 66 141 64 111 68 895 l3 712 255
0 255 0 -4 -732 c-3 -698 -4 -737 -24 -823 -89 -387 -328 -625 -713 -708 -117
-25 -401 -30 -520 -8 -416 75 -665 316 -757 731 -14 65 -17 172 -20 808 l-4
732 260 0 260 0 3 -722z"/>
<path d="M4607 5323 c-98 -236 -177 -431 -177 -435 0 -10 720 -11 720 -1 0 14
-355 863 -361 863 -3 0 -85 -192 -182 -427z"/>
</g>
</svg>
